<?xml version="1.0" standalone="no"?>
<!DOCTYPE svg PUBLIC "-//W3C//DTD SVG 20010904//EN"
 "http://www.w3.org/TR/2001/REC-SVG-20010904/DTD/svg10.dtd">
<svg version="1.0" xmlns="http://www.w3.org/2000/svg"
 width="120.000000pt" height="50.000000pt" viewBox="0 0 376.000000 160.000000"
 preserveAspectRatio="xMidYMid meet">
<metadata>
Created by potrace 1.14, written by Peter Selinger 2001-2017
</metadata>
<g transform="translate(0.000000,160.000000) scale(0.100000,-0.100000)"
fill="#F70505" stroke="none">
<path d="M1230 1559 c-19 -4 -52 -11 -73 -14 -29 -5 -58 -24 -128 -88 -50 -45
-99 -99 -110 -120 -20 -37 -20 -38 0 -82 12 -28 34 -53 60 -71 23 -15 40 -28
38 -30 -2 -2 -58 1 -126 7 -67 6 -157 8 -199 5 -115 -9 -176 -7 -459 8 -86 5
-108 3 -147 -13 -24 -11 -50 -29 -56 -40 -18 -35 10 -148 49 -194 36 -43 141
-59 235 -37 32 7 47 5 78 -11 38 -19 39 -22 33 -58 -14 -82 -31 -115 -77 -146
-24 -16 -56 -47 -71 -67 -15 -21 -33 -38 -40 -38 -7 0 -42 25 -77 55 -68 59
-80 64 -100 40 -16 -19 9 -70 57 -117 18 -18 33 -35 33 -39 0 -4 14 -31 32
-59 23 -37 46 -59 80 -76 55 -28 85 -30 136 -9 44 19 142 112 142 136 0 10 16
36 35 59 19 23 35 50 35 60 0 19 65 64 80 55 4 -3 6 -23 3 -45 -4 -25 1 -62
12 -95 14 -47 15 -62 4 -104 -9 -37 -9 -59 -1 -94 7 -25 12 -68 12 -95 0 -125
25 -183 86 -198 46 -12 75 13 91 76 11 42 12 64 3 95 -7 27 -8 56 -1 89 9 49
-2 116 -19 116 -5 0 -12 9 -15 20 -5 15 3 32 29 60 39 43 44 61 22 79 -13 11
-26 116 -26 205 0 15 -4 34 -10 40 -20 25 -18 61 6 103 13 23 24 51 24 62 0
48 18 24 29 -39 12 -64 11 -74 -9 -127 -25 -67 -21 -132 13 -198 22 -44 26
-152 8 -214 -7 -23 -7 -40 0 -53 6 -11 12 -62 14 -113 5 -136 22 -175 77 -175
34 0 75 37 59 53 -15 15 -14 85 4 143 13 44 13 60 -2 153 -17 102 -17 104 5
165 12 33 22 80 22 104 0 49 15 48 25 -1 14 -62 88 -115 147 -103 51 10 23 -8
-77 -51 l-90 -39 -7 -59 c-10 -75 19 -163 60 -187 46 -27 118 -32 172 -12 l49
18 58 -28 c32 -15 65 -31 73 -35 12 -7 38 -47 52 -85 5 -13 98 -14 106 -2 4 6
7 65 7 131 1 76 6 135 15 162 12 38 12 46 -3 77 l-16 35 30 22 c17 12 33 18
37 15 3 -4 6 -95 5 -203 l-1 -196 28 -29 c21 -20 38 -28 65 -28 44 0 52 17 35
70 -9 28 -10 43 -2 52 5 7 17 39 25 71 15 56 15 60 -9 113 -29 66 -29 76 -6
98 11 9 25 34 32 57 11 33 11 47 1 77 -26 74 -52 119 -76 132 -26 14 -32 12
-108 -27 -38 -20 -47 -10 -47 49 0 29 -6 67 -12 86 -11 28 -10 38 5 64 9 16
17 42 17 58 0 36 24 57 45 40 9 -8 25 -9 42 -4 16 4 33 6 38 4 6 -1 20 -4 32
-5 12 -2 38 -16 57 -31 35 -28 35 -28 16 -49 -11 -12 -20 -26 -20 -32 0 -6 -7
-16 -15 -23 -10 -9 -15 -32 -15 -75 0 -52 4 -68 28 -101 16 -21 35 -44 43 -50
24 -18 86 -32 100 -23 8 5 21 9 29 9 13 -1 13 -2 -1 -13 -8 -7 -24 -25 -35
-42 -10 -16 -26 -36 -36 -43 -13 -9 -17 -24 -14 -56 3 -48 37 -93 96 -131 60
-37 190 -60 205 -35 3 6 17 10 30 10 14 0 31 11 42 26 l20 27 47 -47 c26 -25
56 -46 67 -46 24 0 37 -26 50 -97 15 -90 37 -131 74 -143 19 -6 41 -7 55 -2
22 8 22 13 25 153 1 79 -2 154 -6 166 -5 12 -5 52 0 88 4 37 5 86 1 111 -10
63 3 54 25 -19 l20 -62 64 0 c62 0 64 1 100 42 90 101 82 274 -18 369 -48 47
-88 62 -158 63 -57 0 -69 8 -46 33 15 17 25 19 78 13 33 -4 77 -11 99 -17 60
-15 86 -4 86 36 0 88 -42 125 -140 121 -30 -1 -113 -3 -185 -3 -71 0 -180 -1
-241 -2 -61 -1 -130 4 -155 10 -35 10 -59 9 -112 -1 -49 -9 -88 -10 -136 -3
-37 5 -89 5 -116 1 -60 -10 -64 -10 -280 4 -188 11 -230 12 -325 5 -111 -8
-200 -9 -206 -3 -4 4 8 14 25 24 17 10 34 29 38 43 8 35 22 50 47 50 22 0 146
116 146 137 0 6 7 16 15 23 23 19 147 -3 214 -38 47 -24 59 -37 88 -92 18 -35
33 -70 33 -76 0 -21 34 -53 63 -60 27 -6 28 -5 21 22 -28 121 -66 196 -122
241 -21 17 -83 53 -138 79 -85 41 -109 48 -169 50 -38 1 -86 -2 -105 -7z
m-615 -519 c3 -5 18 -10 32 -10 29 0 52 -25 53 -55 0 -17 -11 -23 -57 -33 -72
-17 -124 -33 -141 -46 -15 -11 -13 -13 -41 52 -12 29 -19 57 -16 62 3 6 27 10
53 10 26 1 58 7 72 15 30 17 37 18 45 5z m689 -20 c38 -6 75 -15 82 -21 13
-10 46 -3 115 25 17 8 32 -20 44 -81 8 -42 -2 -59 -23 -40 -26 23 -80 35 -176
42 -80 6 -93 4 -133 -17 -41 -21 -74 -69 -95 -137 -6 -22 -58 76 -58 110 0 29
58 122 83 133 13 6 59 2 161 -14z m1167 -264 c20 -15 47 -29 59 -31 13 -2 24
-6 25 -7 2 -2 5 -68 9 -147 5 -148 -1 -166 -29 -85 -9 28 -21 42 -41 49 -16 5
-30 10 -32 11 -1 0 -5 21 -8 45 -6 50 -40 167 -53 183 -4 6 -11 25 -15 41 l-6
30 27 -31 c16 -17 44 -43 64 -58z"/>
<path d="M3474 1246 c-9 -15 -16 -47 -16 -83 -1 -92 -3 -96 -41 -73 -94 57
-110 62 -181 63 -58 0 -81 -5 -123 -27 -29 -14 -53 -33 -53 -41 0 -8 -4 -15
-8 -15 -5 0 -19 -18 -31 -41 -20 -35 -24 -56 -24 -143 -1 -80 3 -108 17 -136
11 -19 22 -42 26 -50 4 -8 29 -30 56 -49 43 -31 57 -35 114 -35 72 -1 111 14
174 68 l39 34 -11 58 c-13 74 -40 154 -60 177 -20 22 -10 22 39 -3 35 -18 63
-56 57 -78 -1 -4 2 -33 6 -65 5 -40 4 -62 -4 -72 -29 -34 -19 -281 13 -322 5
-7 5 -22 1 -35 -11 -34 -12 -239 -1 -271 15 -45 134 -97 152 -67 8 13 9 151 1
252 -4 60 -2 80 9 91 18 19 23 179 6 220 -6 16 -9 33 -5 38 3 5 0 9 -5 9 -19
0 -12 61 10 97 16 25 19 43 15 68 -4 19 0 61 10 99 14 57 19 66 40 66 25 0 54
24 54 45 0 7 3 20 6 29 4 10 -6 27 -24 46 -26 26 -38 30 -82 30 -43 0 -51 3
-48 18 3 23 -72 122 -94 122 -10 0 -25 -11 -34 -24z"/>
</g>
</svg>
